<svg width="68" height="68" viewBox="0 0 68 68" fill="none" xmlns="http://www.w3.org/2000/svg">
<circle cx="34.0056" cy="34" r="34" fill="#4C4D52"/>
<path d="M34.0056 20C28.4848 20 24.0056 24.4274 24.0056 29.8803C24.0056 36.1546 30.6723 46.0977 33.1202 49.532C33.2218 49.677 33.355 49.7949 33.5089 49.8763C33.6627 49.9576 33.833 50 34.0056 50C34.1783 50 34.3485 49.9576 34.5024 49.8763C34.6562 49.7949 34.7894 49.677 34.891 49.532C37.3389 46.0991 44.0056 36.1597 44.0056 29.8803C44.0056 24.4274 39.5264 20 34.0056 20Z" stroke="#40DDB6" stroke-width="2" stroke-linecap="round" stroke-linejoin="round"/>
<path d="M34.0056 35C36.2148 35 38.0056 33.2091 38.0056 31C38.0056 28.7909 36.2148 27 34.0056 27C31.7965 27 30.0056 28.7909 30.0056 31C30.0056 33.2091 31.7965 35 34.0056 35Z" stroke="#40DDB6" stroke-width="2" stroke-linecap="round" stroke-linejoin="round"/>
</svg>
