<svg width="18" height="18" viewBox="0 0 18 18" fill="none" xmlns="http://www.w3.org/2000/svg">
<path d="M12.1044 2.18412C13.0478 2.18683 13.9517 2.54891 14.6188 3.19127C15.2859 3.83362 15.6619 4.70407 15.6647 5.6125V12.4685C15.6619 13.377 15.2859 14.2474 14.6188 14.8898C13.9517 15.5321 13.0478 15.8942 12.1044 15.8969H4.98472C4.04135 15.8942 3.13742 15.5321 2.47036 14.8898C1.80329 14.2474 1.42729 13.377 1.42448 12.4685V5.6125C1.42729 4.70407 1.80329 3.83362 2.47036 3.19127C3.13742 2.54891 4.04135 2.18683 4.98472 2.18412H12.1044ZM12.1044 0.812988H4.98472C2.2434 0.812988 0.000610352 2.97271 0.000610352 5.6125V12.4685C0.000610352 15.1083 2.2434 17.268 4.98472 17.268H12.1044C14.8457 17.268 17.0885 15.1083 17.0885 12.4685V5.6125C17.0885 2.97271 14.8457 0.812988 12.1044 0.812988Z" fill="white"/>
<path d="M13.1724 5.61255C12.9612 5.61255 12.7547 5.55223 12.5791 5.43922C12.4034 5.32622 12.2666 5.16559 12.1857 4.97767C12.1049 4.78975 12.0837 4.58296 12.1249 4.38347C12.1662 4.18397 12.2679 4.00072 12.4172 3.85689C12.5666 3.71306 12.7569 3.61511 12.9641 3.57543C13.1712 3.53574 13.386 3.55611 13.5811 3.63395C13.7763 3.71179 13.9431 3.84361 14.0604 4.01273C14.1778 4.18186 14.2404 4.3807 14.2404 4.5841C14.2407 4.71924 14.2133 4.85311 14.1597 4.97802C14.1062 5.10292 14.0275 5.21641 13.9283 5.31197C13.829 5.40753 13.7112 5.48327 13.5815 5.53485C13.4518 5.58643 13.3128 5.61284 13.1724 5.61255ZM8.54457 6.29793C9.10787 6.29793 9.65852 6.45878 10.1269 6.76014C10.5953 7.06151 10.9603 7.48985 11.1759 7.991C11.3914 8.49215 11.4479 9.0436 11.338 9.57562C11.2281 10.1076 10.9568 10.5963 10.5585 10.9799C10.1602 11.3635 9.65269 11.6247 9.10021 11.7305C8.54773 11.8363 7.97507 11.782 7.45464 11.5744C6.93422 11.3668 6.4894 11.0153 6.17645 10.5643C5.86349 10.1133 5.69645 9.583 5.69645 9.04056C5.69726 8.31341 5.99759 7.61626 6.53154 7.10208C7.06549 6.58791 7.78945 6.29871 8.54457 6.29793ZM8.54457 4.9268C7.69965 4.9268 6.8737 5.16806 6.17118 5.62009C5.46866 6.07212 4.92111 6.7146 4.59777 7.46629C4.27443 8.21798 4.18983 9.04512 4.35467 9.84311C4.51951 10.6411 4.92637 11.3741 5.52382 11.9494C6.12127 12.5247 6.88246 12.9165 7.71114 13.0753C8.53983 13.234 9.39878 13.1525 10.1794 12.8412C10.96 12.5298 11.6272 12.0025 12.0966 11.326C12.566 10.6495 12.8165 9.85418 12.8165 9.04056C12.8165 7.94952 12.3665 6.90317 11.5653 6.13169C10.7642 5.36021 9.67757 4.9268 8.54457 4.9268Z" fill="white"/>
</svg>
