<svg width="18" height="18" viewBox="0 0 18 18" fill="none" xmlns="http://www.w3.org/2000/svg">
<path d="M9.16651 0.36084C4.37229 0.36084 0.484985 4.24641 0.484985 9.03849C0.484985 12.5909 2.62436 15.6436 5.68227 16.9878C5.65902 16.3835 5.6784 15.6552 5.83342 14.9966C6.00008 14.2916 6.94962 10.2665 6.94962 10.2665C6.94962 10.2665 6.67057 9.71255 6.67057 8.89515C6.67057 7.609 7.4147 6.64826 8.34486 6.64826C9.1355 6.64826 9.51532 7.24097 9.51532 7.94991C9.51532 8.74407 9.0076 9.9295 8.74793 11.0297C8.5309 11.9517 9.20914 12.6994 10.1199 12.6994C11.7632 12.6994 12.8717 10.5881 12.8717 8.0855C12.8717 6.18339 11.5888 4.76165 9.25952 4.76165C6.62794 4.76165 4.98465 6.72574 4.98465 8.9184C4.98465 9.67381 5.20944 10.2084 5.55825 10.6191C5.71715 10.8089 5.74041 10.8864 5.68227 11.1033C5.63964 11.2621 5.54662 11.6457 5.50399 11.8006C5.44586 12.0214 5.26757 12.0989 5.06991 12.0176C3.85683 11.5217 3.29098 10.1968 3.29098 8.70145C3.29098 6.23762 5.37222 3.2818 9.49594 3.2818C12.8096 3.2818 14.9917 5.67977 14.9917 8.25208C14.9917 11.6573 13.0964 14.1986 10.306 14.1986C9.36804 14.1986 8.48826 13.6911 8.18596 13.1178C8.18596 13.1178 7.68212 15.1167 7.5736 15.5041C7.39145 16.1743 7.03101 16.8406 6.70158 17.3636C7.5007 17.5992 8.32946 17.7193 9.16263 17.72C13.9568 17.72 17.8442 13.8344 17.8442 9.04236C17.8442 4.25029 13.9607 0.36084 9.16651 0.36084Z" fill="white"/>
</svg>
