<svg width="19" height="16" viewBox="0 0 19 16" fill="none" xmlns="http://www.w3.org/2000/svg">
<path d="M18.485 2.4523C17.7982 2.75071 17.0716 2.94731 16.328 3.03588C17.1095 2.57831 17.6971 1.85138 17.9808 0.991431C17.242 1.42343 16.4351 1.72654 15.5946 1.88778C15.2406 1.51686 14.815 1.22178 14.3435 1.02047C13.8719 0.819173 13.3644 0.715856 12.8517 0.716803C10.776 0.716803 9.09618 2.3722 9.09618 4.41283C9.09471 4.69667 9.12724 4.97967 9.19307 5.25578C7.70462 5.18601 6.24713 4.8063 4.91383 4.14097C3.58054 3.47564 2.4008 2.53932 1.4501 1.39193C1.11657 1.9542 0.940181 2.59573 0.939368 3.24948C0.939368 4.53107 1.60801 5.66391 2.61765 6.32759C2.01947 6.3134 1.43354 6.15508 0.909616 5.86607V5.91184C0.909616 7.70455 2.20647 9.19592 3.92289 9.53539C3.60012 9.62144 3.26751 9.66503 2.93347 9.66508C2.69644 9.66549 2.45995 9.6425 2.22745 9.59642C2.70461 11.0649 4.09339 12.1329 5.73848 12.1634C4.40173 13.1936 2.76054 13.7504 1.07287 13.7463C0.773301 13.7459 0.474014 13.7281 0.176514 13.6929C1.89339 14.7893 3.88911 15.3691 5.92614 15.3636C12.8437 15.3636 16.6229 9.72992 16.6229 4.84384C16.6229 4.68364 16.6187 4.52344 16.6111 4.36706C17.3446 3.84529 17.9792 3.19688 18.485 2.4523Z" fill="white"/>
</svg>
